<svg width="207" height="99" viewBox="0 0 207 99" fill="none" xmlns="http://www.w3.org/2000/svg">
<path d="M81.9305 46.2266L86.6765 35.5785H89.1103L93.8715 46.2266H91.2856L87.3914 36.8258H88.365L84.4556 46.2266H81.9305ZM84.3035 43.9448L84.9576 42.0738H90.4337L91.103 43.9448H84.3035ZM94.9763 46.2266V35.5785H97.4405V44.2186H102.78V46.2266H94.9763ZM106.438 40.3701H111.549V42.3476H106.438V40.3701ZM106.621 46.2266H104.157V35.5785H112.204V37.556H106.621V46.2266ZM112.042 46.2266L116.788 35.5785H119.221L123.983 46.2266H121.397L117.502 36.8258H118.476L114.567 46.2266H112.042ZM114.415 43.9448L115.069 42.0738H120.545L121.214 43.9448H114.415ZM129.395 46.2266V35.5785H134.233C135.389 35.5785 136.408 35.8016 137.29 36.2478C138.172 36.6839 138.862 37.2974 139.359 38.0884C139.856 38.8794 140.104 39.8174 140.104 40.9025C140.104 41.9775 139.856 42.9155 139.359 43.7167C138.862 44.5077 138.172 45.1263 137.29 45.5725C136.408 46.0085 135.389 46.2266 134.233 46.2266H129.395ZM131.86 44.2034H134.111C134.821 44.2034 135.434 44.0716 135.951 43.8079C136.479 43.5341 136.884 43.1488 137.168 42.6519C137.462 42.1549 137.61 41.5718 137.61 40.9025C137.61 40.2231 137.462 39.64 137.168 39.1532C136.884 38.6563 136.479 38.276 135.951 38.0123C135.434 37.7385 134.821 37.6016 134.111 37.6016H131.86V44.2034ZM141.963 46.2266V35.5785H144.427V46.2266H141.963ZM152.095 46.4091C151.254 46.4091 150.478 46.2773 149.768 46.0136C149.068 45.7398 148.455 45.3544 147.927 44.8575C147.41 44.3606 147.005 43.7775 146.711 43.1082C146.427 42.4389 146.285 41.7037 146.285 40.9025C146.285 40.1014 146.427 39.3662 146.711 38.6969C147.005 38.0276 147.415 37.4444 147.943 36.9475C148.47 36.4506 149.089 36.0703 149.798 35.8067C150.508 35.5329 151.289 35.396 152.141 35.396C153.084 35.396 153.931 35.5531 154.681 35.8675C155.442 36.1819 156.081 36.6382 156.598 37.2366L155.016 38.6969C154.631 38.2912 154.21 37.9921 153.753 37.7994C153.297 37.5966 152.8 37.4952 152.263 37.4952C151.746 37.4952 151.274 37.5763 150.848 37.7385C150.422 37.9008 150.052 38.134 149.738 38.4383C149.433 38.7425 149.195 39.1025 149.023 39.5183C148.86 39.9341 148.779 40.3955 148.779 40.9025C148.779 41.3994 148.86 41.8558 149.023 42.2716C149.195 42.6873 149.433 43.0524 149.738 43.3668C150.052 43.671 150.417 43.9043 150.833 44.0665C151.259 44.2288 151.725 44.3099 152.232 44.3099C152.719 44.3099 153.191 44.2339 153.647 44.0817C154.113 43.9195 154.565 43.6507 155.001 43.2755L156.4 45.0553C155.822 45.4913 155.148 45.826 154.377 46.0592C153.617 46.2925 152.856 46.4091 152.095 46.4091ZM154.149 44.7358V40.7352H156.4V45.0553L154.149 44.7358ZM158.689 46.2266V35.5785H161.154V46.2266H158.689ZM165.886 46.2266V37.5864H162.479V35.5785H171.758V37.5864H168.351V46.2266H165.886ZM171.15 46.2266L175.896 35.5785H178.329L183.091 46.2266H180.505L176.611 36.8258H177.584L173.675 46.2266H171.15ZM173.523 43.9448L174.177 42.0738H179.653L180.322 43.9448H173.523ZM184.195 46.2266V35.5785H186.66V44.2186H191.999V46.2266H184.195Z" fill="#5B6058"/>
<path d="M81.9305 66.0977L86.6765 55.4496H89.1103L93.8715 66.0977H91.2856L87.3914 56.6969H88.365L84.4556 66.0977H81.9305ZM84.3035 63.8159L84.9576 61.9449H90.4337L91.103 63.8159H84.3035ZM99.9692 66.2802C99.1275 66.2802 98.3517 66.1484 97.6418 65.8847C96.9421 65.6109 96.3286 65.2255 95.8012 64.7286C95.2841 64.2317 94.8784 63.6486 94.5843 62.9793C94.3004 62.31 94.1584 61.5748 94.1584 60.7736C94.1584 59.9725 94.3004 59.2373 94.5843 58.568C94.8784 57.8986 95.2891 57.3155 95.8165 56.8186C96.3438 56.3217 96.9624 55.9414 97.6723 55.6778C98.3821 55.404 99.163 55.2671 100.015 55.2671C100.958 55.2671 101.805 55.4242 102.555 55.7386C103.316 56.053 103.955 56.5093 104.472 57.1076L102.89 58.568C102.504 58.1623 102.084 57.8632 101.627 57.6705C101.171 57.4677 100.674 57.3662 100.137 57.3662C99.6193 57.3662 99.1478 57.4474 98.7219 57.6096C98.2959 57.7719 97.9258 58.0051 97.6114 58.3094C97.3072 58.6136 97.0689 58.9736 96.8965 59.3894C96.7342 59.8052 96.6531 60.2666 96.6531 60.7736C96.6531 61.2705 96.7342 61.7269 96.8965 62.1427C97.0689 62.5584 97.3072 62.9235 97.6114 63.2379C97.9258 63.5421 98.2909 63.7754 98.7066 63.9376C99.1326 64.0999 99.5991 64.181 100.106 64.181C100.593 64.181 101.064 64.1049 101.521 63.9528C101.987 63.7906 102.439 63.5218 102.875 63.1466L104.274 64.9264C103.696 65.3624 103.022 65.6971 102.251 65.9303C101.49 66.1636 100.73 66.2802 99.9692 66.2802ZM102.023 64.6069V60.6063H104.274V64.9264L102.023 64.6069ZM108.83 59.7392H113.956V61.6559H108.83V59.7392ZM109.012 64.1202H114.808V66.0977H106.563V55.4496H114.61V57.4271H109.012V64.1202ZM116.769 66.0977V55.4496H118.807L125.089 63.1162H124.1V55.4496H126.534V66.0977H124.511L118.214 58.4311H119.202V66.0977H116.769ZM134.149 66.2802C133.328 66.2802 132.562 66.1484 131.853 65.8847C131.153 65.6109 130.544 65.2255 130.027 64.7286C129.51 64.2317 129.104 63.6486 128.81 62.9793C128.526 62.31 128.384 61.5748 128.384 60.7736C128.384 59.9725 128.526 59.2373 128.81 58.568C129.104 57.8986 129.51 57.3155 130.027 56.8186C130.554 56.3217 131.168 55.9414 131.868 55.6778C132.567 55.404 133.333 55.2671 134.165 55.2671C135.088 55.2671 135.919 55.4293 136.659 55.7538C137.41 56.0682 138.039 56.5347 138.546 57.1533L136.964 58.6136C136.599 58.1978 136.193 57.8885 135.747 57.6857C135.3 57.4727 134.814 57.3662 134.286 57.3662C133.789 57.3662 133.333 57.4474 132.917 57.6096C132.502 57.7719 132.142 58.0051 131.837 58.3094C131.533 58.6136 131.295 58.9736 131.122 59.3894C130.96 59.8052 130.879 60.2666 130.879 60.7736C130.879 61.2807 130.96 61.7421 131.122 62.1579C131.295 62.5737 131.533 62.9337 131.837 63.2379C132.142 63.5421 132.502 63.7754 132.917 63.9376C133.333 64.0999 133.789 64.181 134.286 64.181C134.814 64.181 135.3 64.0796 135.747 63.8768C136.193 63.6638 136.599 63.3444 136.964 62.9184L138.546 64.3788C138.039 64.9974 137.41 65.4689 136.659 65.7934C135.919 66.1179 135.082 66.2802 134.149 66.2802ZM142.767 66.0977V61.7472L143.33 63.2379L138.645 55.4496H141.261L144.851 61.4277H143.345L146.951 55.4496H149.369L144.684 63.2379L145.232 61.7472V66.0977H142.767Z" fill="#5B6058"/>
<path d="M58.4802 60.8667C58.0667 57.8198 57.4299 54.7944 56.5758 51.8176C55.7066 48.847 54.6383 45.919 53.3405 43.0794C52.0217 40.2519 50.5066 37.5006 48.7652 34.8834C48.3367 34.2253 47.881 33.5824 47.4283 32.9395C46.9605 32.3058 46.4897 31.6751 45.9977 31.0627C45.0169 29.8288 43.9998 28.6222 42.9194 27.4705C41.848 26.3127 40.7313 25.1915 39.5694 24.1221C38.996 23.5797 38.3954 23.0648 37.8008 22.5408C37.1942 22.035 36.5876 21.5262 35.9629 21.0417C33.4761 19.0948 30.8504 17.3124 28.104 15.7555C25.3637 14.1834 22.5207 12.8062 19.6083 11.6088L15.0693 9.74414L14.9455 14.8628L14.7765 21.6602L14.7463 22.9521C14.7252 23.7382 14.7132 24.5242 14.695 25.3103C14.6558 27.2207 14.6226 29.131 14.5894 31.0414L14.4536 39.1337L14.3721 47.223C14.345 49.9195 14.3178 52.6159 14.3238 55.3123C14.3238 58.0087 14.3027 60.7052 14.3208 63.4016C14.348 68.7945 14.3842 74.1873 14.523 79.5833L14.6377 84.0133L18.8478 83.4588H18.8508L19.0892 83.4222L19.2794 83.3887L19.6385 83.3217L20.3236 83.1785C20.7733 83.0779 21.2109 82.9713 21.6485 82.8586C22.5177 82.6301 23.3688 82.3772 24.2108 82.103C25.8948 81.5515 27.5336 80.9056 29.1362 80.1774C32.3383 78.718 35.3834 76.9173 38.1872 74.7906C40.9939 72.6639 43.5562 70.2082 45.7865 67.4843C48.0168 64.7605 49.9091 61.7777 51.4452 58.6455L52.3114 56.8723C51.9553 55.8943 51.575 54.9254 51.1736 53.9717C50.6304 52.6677 50.0449 51.388 49.4232 50.1449L46.4927 56.0192C44.9927 58.6973 43.2091 61.1896 41.1659 63.4229C39.1197 65.6563 36.817 67.6306 34.3211 69.3124C31.8282 70.9973 29.1392 72.3928 26.3415 73.4835C25.0317 73.9923 23.6977 74.4372 22.3517 74.8058C22.4121 71.0065 22.4392 67.2071 22.4573 63.4077C22.4754 60.7113 22.4543 58.0148 22.4543 55.3184C22.4573 52.622 22.4332 49.9255 22.406 47.2291L22.3245 39.1398L22.1887 31.0414C22.1736 30.173 22.1555 29.3017 22.1404 28.4333C22.1193 27.2146 22.0982 25.9959 22.071 24.7741C22.059 24.1647 22.0469 23.5584 22.0318 22.949L21.9594 19.9997C23.0187 20.4598 24.072 20.9381 25.1071 21.45C27.6815 22.7205 30.1653 24.1708 32.5465 25.7795C34.9156 27.4035 37.2003 29.1706 39.3219 31.1328C41.4556 33.0827 43.4204 35.2277 45.2583 37.4884C47.0993 39.7492 48.7562 42.1775 50.2471 44.7155C51.7531 47.2474 53.081 49.9042 54.2248 52.6524C55.3807 55.3976 56.3615 58.2312 57.1523 61.1348C57.5536 62.5851 57.9068 64.0506 58.2025 65.5344C58.5073 67.0151 58.7578 68.5111 58.9178 70.0254C59.0989 66.9816 58.8725 63.9135 58.4802 60.8667ZM17.9303 75.7077C17.9243 75.7107 17.9273 75.7107 17.9303 75.7077V75.7077Z" fill="#5B6058"/>
<path d="M62.1157 17.5958C62.3662 15.1705 62.5865 12.5594 62.7616 9.74414L53.7891 22.1234L56.8885 20.4659C55.9862 29.1158 54.8152 32.9822 53.7891 36.6993C54.6945 38.2898 55.5516 39.9442 56.3483 41.6534C56.5324 42.0556 56.7105 42.4578 56.8855 42.8661C57.5736 41.0563 60.486 33.3509 62.1097 17.6689H62.1127L62.1157 17.5958Z" fill="#5B6058"/>
<path d="M157.036 60.8019H159.551V61.4011H157.036V60.8019ZM157.105 63.373H156.408V58.4955H159.851V59.1017H157.105V63.373ZM162.979 63.4288C162.607 63.4288 162.261 63.3661 161.941 63.2407C161.625 63.1152 161.351 62.941 161.118 62.7181C160.886 62.4904 160.705 62.2257 160.575 61.9237C160.445 61.6218 160.38 61.2919 160.38 60.9343C160.38 60.5766 160.445 60.2467 160.575 59.9448C160.705 59.6429 160.886 59.3804 161.118 59.1574C161.351 58.9298 161.625 58.7533 161.941 58.6279C162.257 58.5024 162.603 58.4397 162.979 58.4397C163.35 58.4397 163.692 58.5024 164.003 58.6279C164.319 58.7486 164.593 58.9228 164.825 59.1505C165.062 59.3734 165.243 59.6359 165.369 59.9378C165.499 60.2398 165.564 60.5719 165.564 60.9343C165.564 61.2966 165.499 61.6287 165.369 61.9307C165.243 62.2326 165.062 62.4974 164.825 62.725C164.593 62.948 164.319 63.1222 164.003 63.2476C163.692 63.3684 163.35 63.4288 162.979 63.4288ZM162.979 62.8086C163.248 62.8086 163.497 62.7622 163.724 62.6693C163.957 62.5764 164.156 62.4463 164.324 62.2791C164.496 62.1072 164.628 61.9074 164.721 61.6798C164.818 61.4522 164.867 61.2037 164.867 60.9343C164.867 60.6648 164.818 60.4163 164.721 60.1887C164.628 59.9611 164.496 59.7636 164.324 59.5964C164.156 59.4245 163.957 59.2921 163.724 59.1992C163.497 59.1063 163.248 59.0599 162.979 59.0599C162.705 59.0599 162.452 59.1063 162.219 59.1992C161.992 59.2921 161.792 59.4245 161.62 59.5964C161.448 59.7636 161.314 59.9611 161.216 60.1887C161.123 60.4163 161.077 60.6648 161.077 60.9343C161.077 61.2037 161.123 61.4522 161.216 61.6798C161.314 61.9074 161.448 62.1072 161.62 62.2791C161.792 62.4463 161.992 62.5764 162.219 62.6693C162.452 62.7622 162.705 62.8086 162.979 62.8086ZM166.629 63.373V58.4955H168.531C168.959 58.4955 169.323 58.5628 169.625 58.6975C169.927 58.8322 170.159 59.0273 170.322 59.2828C170.485 59.5383 170.566 59.8426 170.566 60.1956C170.566 60.5487 170.485 60.853 170.322 61.1085C170.159 61.3593 169.927 61.5521 169.625 61.6868C169.323 61.8215 168.959 61.8889 168.531 61.8889H167.012L167.326 61.5683V63.373H166.629ZM169.89 63.373L168.65 61.6032H169.395L170.65 63.373H169.89ZM167.326 61.638L167.012 61.2966H168.51C168.956 61.2966 169.293 61.2014 169.521 61.0109C169.753 60.8158 169.869 60.544 169.869 60.1956C169.869 59.8472 169.753 59.5778 169.521 59.3874C169.293 59.1969 168.956 59.1017 168.51 59.1017H167.012L167.326 58.7533V61.638ZM173.563 63.373V58.4955H175.751C176.313 58.4955 176.745 58.6093 177.047 58.8369C177.349 59.0599 177.5 59.3665 177.5 59.7567C177.5 60.0214 177.439 60.2444 177.319 60.4256C177.203 60.6068 177.045 60.7461 176.845 60.8437C176.645 60.9412 176.429 60.99 176.197 60.99L176.322 60.781C176.601 60.781 176.847 60.8297 177.061 60.9273C177.275 61.0248 177.444 61.1688 177.57 61.3593C177.695 61.5451 177.758 61.7774 177.758 62.0561C177.758 62.4742 177.6 62.7993 177.284 63.0316C176.973 63.2592 176.508 63.373 175.89 63.373H173.563ZM174.26 62.8086H175.862C176.248 62.8086 176.543 62.7436 176.747 62.6135C176.952 62.4835 177.054 62.2791 177.054 62.0004C177.054 61.717 176.952 61.5103 176.747 61.3802C176.543 61.2501 176.248 61.1851 175.862 61.1851H174.197V60.6207H175.688C176.041 60.6207 176.315 60.5557 176.51 60.4256C176.706 60.2955 176.803 60.1004 176.803 59.8403C176.803 59.5801 176.706 59.385 176.51 59.255C176.315 59.1249 176.041 59.0599 175.688 59.0599H174.26V62.8086ZM178.363 63.373V62.8992L180.349 60.983C180.525 60.8158 180.655 60.6695 180.739 60.544C180.827 60.414 180.885 60.2955 180.913 60.1887C180.946 60.0772 180.962 59.9703 180.962 59.8682C180.962 59.6173 180.874 59.4199 180.697 59.2759C180.521 59.1319 180.263 59.0599 179.924 59.0599C179.663 59.0599 179.429 59.104 179.22 59.1923C179.011 59.2759 178.83 59.4083 178.676 59.5894L178.202 59.1783C178.388 58.9414 178.637 58.7602 178.948 58.6348C179.264 58.5048 179.61 58.4397 179.986 58.4397C180.325 58.4397 180.62 58.4955 180.871 58.6069C181.122 58.7138 181.315 58.8694 181.45 59.0738C181.589 59.2782 181.659 59.5198 181.659 59.7985C181.659 59.9564 181.638 60.112 181.596 60.2653C181.554 60.4186 181.475 60.5812 181.359 60.7531C181.243 60.925 181.076 61.1177 180.857 61.3314L179.087 63.0386L178.92 62.7668H181.868V63.373H178.363ZM182.838 63.373V58.4955H185.026C185.588 58.4955 186.02 58.6093 186.322 58.8369C186.624 59.0599 186.775 59.3665 186.775 59.7567C186.775 60.0214 186.714 60.2444 186.593 60.4256C186.477 60.6068 186.319 60.7461 186.12 60.8437C185.92 60.9412 185.704 60.99 185.472 60.99L185.597 60.781C185.876 60.781 186.122 60.8297 186.336 60.9273C186.549 61.0248 186.719 61.1688 186.844 61.3593C186.97 61.5451 187.032 61.7774 187.032 62.0561C187.032 62.4742 186.875 62.7993 186.559 63.0316C186.247 63.2592 185.783 63.373 185.165 63.373H182.838ZM183.535 62.8086H185.137C185.523 62.8086 185.818 62.7436 186.022 62.6135C186.226 62.4835 186.329 62.2791 186.329 62.0004C186.329 61.717 186.226 61.5103 186.022 61.3802C185.818 61.2501 185.523 61.1851 185.137 61.1851H183.472V60.6207H184.963C185.316 60.6207 185.59 60.5557 185.785 60.4256C185.98 60.2955 186.078 60.1004 186.078 59.8403C186.078 59.5801 185.98 59.385 185.785 59.255C185.59 59.1249 185.316 59.0599 184.963 59.0599H183.535V62.8086Z" fill="black"/>
</svg>
