<svg width="32" height="32" viewBox="0 0 32 32" fill="none" xmlns="http://www.w3.org/2000/svg">
<path d="M15.815 0C7.08088 0 0 7.08088 0 15.815C0 24.5492 7.08088 31.6301 15.815 31.6301C24.5492 31.6301 31.6301 24.5492 31.6301 15.815C31.6301 7.08088 24.5492 0 15.815 0ZM15.815 2.43308C23.2055 2.43308 29.197 8.42455 29.197 15.815C29.197 23.2055 23.2055 29.197 15.815 29.197C8.42455 29.197 2.43308 23.2055 2.43308 15.815C2.43308 8.42455 8.42455 2.43308 15.815 2.43308ZM14.9026 4.86616L15.2068 7.29924H16.4233L16.7274 4.86616H14.9026ZM23.1273 7.64258L16.5754 13.5055C16.3301 13.4242 16.0734 13.3825 15.815 13.3819C15.1697 13.3819 14.5509 13.6383 14.0946 14.0946C13.6383 14.5509 13.3819 15.1697 13.3819 15.815C13.3819 16.4603 13.6383 17.0792 14.0946 17.5355C14.5509 17.9918 15.1697 18.2481 15.815 18.2481C15.9625 18.2476 16.1096 18.2337 16.2546 18.2065L21.1778 22.2862L22.2874 21.1778L18.2065 16.2534C18.2798 15.8533 18.2517 15.4411 18.1246 15.0547L23.9875 8.50272L23.1273 7.64258ZM4.86616 14.9026V16.7274L7.29924 16.4233V15.2068L4.86616 14.9026ZM26.7639 14.9026L24.3308 15.2068V16.4233L26.7639 16.7274V14.9026ZM15.2068 24.3308L14.9026 26.7639H16.7274L16.4233 24.3308H15.2068Z" fill="url(#paint0_linear_230_1903)"/>
<defs>
<linearGradient id="paint0_linear_230_1903" x1="31.6301" y1="31.6301" x2="-3.57828" y2="4.67367" gradientUnits="userSpaceOnUse">
<stop stop-color="#29292F"/>
<stop offset="1" stop-color="#289B5D"/>
</linearGradient>
</defs>
</svg>
