<svg width="33" height="33" viewBox="0 0 33 33" fill="none" xmlns="http://www.w3.org/2000/svg">
<g clip-path="url(#clip0_249_2844)">
<path d="M11.7183 22.0307V28.4897C12.5882 29.0453 14.8518 30.0784 20.0334 30.5181C21.0328 30.6029 22.0485 30.4626 22.971 30.113C26.4381 28.7988 29.4225 26.0529 30.8978 24.5257L31.0173 24.6412L30.8978 24.5257C31.3454 24.0624 31.371 23.3414 30.9574 22.8481L30.9573 22.848C30.6089 22.4321 30.0364 22.2877 29.5321 22.4882L24.7747 24.3807C24.7747 24.3807 24.7747 24.3807 24.7747 24.3807C24.5005 24.4899 24.2159 24.5661 23.9272 24.6102C24.0481 24.9451 24.0856 25.3134 24.0197 25.6843L24.0197 25.6844L24.009 25.7442C23.8298 26.7516 22.9383 27.4816 21.9328 27.4816C21.8681 27.4816 21.8033 27.4785 21.7381 27.4723C21.738 27.4723 21.738 27.4723 21.738 27.4723L15.6958 26.9046L15.6958 26.9046L15.7113 26.7391C15.4614 26.7157 15.2778 26.4942 15.3014 26.2443L11.7183 22.0307ZM11.7183 22.0307H13.8361C14.1845 22.0307 14.5296 22.0837 14.8622 22.188L14.8622 22.188L22.165 24.4777L22.1663 24.4781L22.1803 24.4827L22.1803 24.4827L22.1824 24.4833C22.6118 24.6158 22.8732 25.041 22.7974 25.4669L22.7868 25.5267C22.7868 25.5267 22.7868 25.5267 22.7868 25.5268C22.7085 25.9656 22.2979 26.2774 21.854 26.2365C21.854 26.2364 21.8539 26.2364 21.8539 26.2364L11.7183 22.0307ZM10.7531 20.3619H9.26701C9.1956 19.8909 8.78805 19.5291 8.29736 19.5291H6.32246H2.12253C1.95379 19.5291 1.81886 19.6074 1.71835 19.7164C1.62069 19.8222 1.55116 19.9606 1.50113 20.1013C1.40091 20.3829 1.36337 20.7179 1.36337 20.9555V29.589C1.36337 29.8266 1.40092 30.1598 1.50126 30.4396C1.55138 30.5793 1.62103 30.7168 1.71887 30.8219C1.81959 30.93 1.95439 31.0073 2.12253 31.0073H8.29759C8.7881 31.0073 9.1956 30.6455 9.26701 30.1745H10.7531C11.0597 30.1745 11.3328 30.031 11.5094 29.8084C12.662 30.4304 14.1763 30.864 15.6742 31.1669C17.2345 31.4823 18.7905 31.6585 19.9284 31.755C20.1526 31.7741 20.3773 31.7835 20.6018 31.7835C21.5632 31.7835 22.5224 31.6106 23.4109 31.2739L23.352 31.1185L23.4109 31.2738C27.1143 29.8701 30.2535 26.9793 31.7907 25.388C32.6804 24.4672 32.7314 23.032 31.909 22.0507C31.216 21.2233 30.0761 20.9355 29.0732 21.3345L24.3158 23.2273C23.7513 23.4518 23.1207 23.4756 22.5408 23.2946L15.2336 21.0033C14.7808 20.8612 14.3106 20.7893 13.8361 20.7893H11.5537C11.3807 20.5324 11.087 20.3619 10.7531 20.3619ZM5.72692 19.9746C5.71064 20.0301 5.70191 20.0889 5.70191 20.1497C5.70191 20.1946 5.70668 20.2384 5.71573 20.2806C5.49211 20.2458 5.27678 20.2069 5.10742 20.1653C5.07206 20.1566 5.0396 20.148 5.01013 20.1395C5.01843 20.1368 5.027 20.134 5.03585 20.1312C5.19791 20.08 5.41656 20.0325 5.63425 19.9917C5.66536 19.9858 5.69631 19.9801 5.72692 19.9746ZM6.84729 20.7705C6.84741 20.7705 6.84754 20.7705 6.84767 20.7705H8.03652V29.7659H3.0251V20.7705H6.32246H6.84708H6.84729Z" fill="url(#paint0_linear_249_2844)" stroke="url(#paint1_linear_249_2844)" stroke-width="0.332346"/>
<path d="M21.0824 11.7489C20.0238 11.7137 19.1594 11.1667 19.1594 10.6023C19.1594 10.3023 19.4242 9.86144 19.7593 9.86144C20.1296 9.86144 20.4296 10.3818 21.0824 10.4965V9.06734C20.2709 8.75886 19.3185 8.37938 19.3185 7.25053C19.3185 6.1302 20.1473 5.5924 21.0824 5.45999V5.21293C21.0824 5.08939 21.2237 4.97473 21.4178 4.97473C21.5854 4.97473 21.7529 5.08939 21.7529 5.21293V5.43337C22.3 5.45112 23.3319 5.5924 23.3319 6.20085C23.3319 6.43904 23.1729 6.92395 22.7849 6.92395C22.4938 6.92395 22.3262 6.64209 21.7529 6.59772V7.8856C22.5556 8.18556 23.4902 8.59983 23.4902 9.7908C23.4902 10.8845 22.7849 11.5462 21.7529 11.7137V11.9693C21.7529 12.0929 21.585 12.2075 21.4175 12.2075C21.2237 12.2075 21.0824 12.0929 21.0824 11.9693V11.7489ZM21.1704 7.67368V6.62434C20.7735 6.7035 20.606 6.90655 20.606 7.11812C20.606 7.37407 20.8353 7.53275 21.1704 7.67368ZM21.6645 9.30554V10.4876C21.9645 10.417 22.2027 10.2494 22.2027 9.93208C22.2027 9.64064 21.9819 9.4557 21.6645 9.30554Z" fill="url(#paint2_linear_249_2844)"/>
<path d="M18.8254 1.28974L18.8254 1.28975L19.0906 1.2075C19.096 1.20572 19.1029 1.20356 19.1106 1.20155C19.8314 0.993505 20.5802 0.887904 21.3365 0.887904C25.7538 0.887904 29.3471 4.48126 29.3471 8.89851C29.3471 13.3158 25.7538 16.9091 21.3365 16.9091C16.9192 16.9091 13.3259 13.3158 13.3259 8.89851C13.3259 7.01894 13.9899 5.19163 15.1965 3.75343L15.1965 3.75335C15.4975 3.39505 16.0321 3.34757 16.3908 3.64878L18.8254 1.28974ZM18.8254 1.28974L18.8234 1.2904M18.8254 1.28974L18.8234 1.2904M18.8234 1.2904C18.81 1.29474 18.7938 1.30011 18.7766 1.30675L18.2402 1.50918L18.2396 1.50943M18.8234 1.2904L18.2396 1.50943M18.2396 1.50943C18.2251 1.51495 18.2101 1.52111 18.195 1.52794C18.1948 1.52805 18.1945 1.52817 18.1943 1.52828L17.982 1.62244L17.9818 1.62251L18.2396 1.50943ZM16.4958 4.84311L16.4958 4.84312C15.5451 5.97641 15.0217 7.41673 15.0217 8.89851C15.0217 12.3804 17.8547 15.2133 21.3365 15.2133C24.818 15.2133 27.6509 12.3804 27.6509 8.89851C27.6509 5.41667 24.818 2.5841 21.3365 2.5841C20.7408 2.5841 20.1527 2.6663 19.5869 2.82916L19.3526 2.90208L18.8619 3.08715L18.6707 3.17214L18.6706 3.17217L18.6031 3.02033L16.4958 4.84311ZM16.4958 4.84311C16.7965 4.48454 16.7497 3.94991 16.3909 3.64885L16.4958 4.84311Z" fill="url(#paint3_linear_249_2844)" stroke="url(#paint4_linear_249_2844)" stroke-width="0.332346"/>
</g>
<defs>
<linearGradient id="paint0_linear_249_2844" x1="32.3273" y1="31.6173" x2="21.2564" y2="9.72123" gradientUnits="userSpaceOnUse">
<stop stop-color="#29292F"/>
<stop offset="1" stop-color="#289B5D"/>
</linearGradient>
<linearGradient id="paint1_linear_249_2844" x1="32.3273" y1="31.6173" x2="21.2564" y2="9.72123" gradientUnits="userSpaceOnUse">
<stop stop-color="#29292F"/>
<stop offset="1" stop-color="#289B5D"/>
</linearGradient>
<linearGradient id="paint2_linear_249_2844" x1="23.4902" y1="12.2075" x2="17.1716" y2="9.31084" gradientUnits="userSpaceOnUse">
<stop stop-color="#29292F"/>
<stop offset="1" stop-color="#289B5D"/>
</linearGradient>
<linearGradient id="paint3_linear_249_2844" x1="29.1809" y1="16.743" x2="11.7172" y2="3.37227" gradientUnits="userSpaceOnUse">
<stop stop-color="#29292F"/>
<stop offset="1" stop-color="#289B5D"/>
</linearGradient>
<linearGradient id="paint4_linear_249_2844" x1="29.1809" y1="16.743" x2="11.7172" y2="3.37227" gradientUnits="userSpaceOnUse">
<stop stop-color="#29292F"/>
<stop offset="1" stop-color="#289B5D"/>
</linearGradient>
<clipPath id="clip0_249_2844">
<rect width="31.9052" height="31.9052" fill="white" transform="translate(0.861084 0.230591)"/>
</clipPath>
</defs>
</svg>
