<svg width="32" height="32" viewBox="0 0 32 32" fill="none" xmlns="http://www.w3.org/2000/svg">
<g clip-path="url(#clip0_230_1916)">
<path d="M8.33089 19.9577H9.8042C10.1352 19.9577 10.4263 20.1267 10.5979 20.3815H12.8605C13.331 20.3815 13.7971 20.4527 14.246 20.5936L21.4902 22.8651L8.33089 19.9577ZM8.33089 19.9577C8.26009 19.4907 7.85606 19.1321 7.3696 19.1321H5.41174H1.24803C1.08074 19.1321 0.94698 19.2098 0.84734 19.3177C0.750522 19.4227 0.681593 19.5599 0.631987 19.6993C0.532637 19.9785 0.495416 20.3106 0.495416 20.5462V29.1052C0.495416 29.3408 0.532642 29.6711 0.632124 29.9485C0.681807 30.087 0.750857 30.2233 0.84785 30.3275C0.947704 30.4347 1.08134 30.5113 1.24803 30.5113H7.36983C7.85611 30.5113 8.2601 30.1527 8.33089 29.6857H9.8042C10.1081 29.6857 10.3789 29.5434 10.554 29.3227C11.6966 29.9394 13.1978 30.3692 14.6828 30.6695C16.2297 30.9822 17.7723 31.1569 18.9004 31.2525C19.1226 31.2715 19.3454 31.2808 19.5679 31.2808C20.521 31.2808 21.472 31.1094 22.3528 30.7755L22.2944 30.6215L22.3528 30.7755C26.0242 29.3839 29.1364 26.518 30.6603 24.9405C31.5423 24.0276 31.5929 22.6048 30.7776 21.632C30.0905 20.8117 28.9605 20.5264 27.9663 20.922L23.2499 22.7984C22.6903 23.0209 22.0652 23.0446 21.4904 22.8651L8.33089 19.9577ZM29.8936 24.2001L29.7751 24.0856C30.2189 23.6263 30.2443 22.9115 29.8342 22.4225L29.8341 22.4224C29.4887 22.0101 28.9211 21.8669 28.4212 22.0657L23.7048 23.9419C23.7048 23.9419 23.7048 23.9419 23.7048 23.9419C23.433 24.0501 23.1508 24.1257 22.8647 24.1694C22.9845 24.5014 23.0216 24.8665 22.9563 25.2342L22.9563 25.2343L22.9458 25.2936L22.9458 25.2936C22.7681 26.2923 21.8842 27.016 20.8874 27.016C20.8233 27.016 20.759 27.0129 20.6944 27.0068L29.8936 24.2001ZM29.8936 24.2001L29.7751 24.0856C28.3125 25.5996 25.3539 28.3218 21.9167 29.6247C21.0021 29.9713 19.9952 30.1104 19.0045 30.0264C13.8675 29.5904 11.6234 28.5662 10.761 28.0154V21.6121M29.8936 24.2001L10.761 21.6121M10.761 21.6121H12.8605C13.206 21.6121 13.5481 21.6647 13.8778 21.7681L13.8778 21.7681L21.1176 24.038L21.119 24.0384L21.1328 24.043L21.1349 24.0436C21.5606 24.175 21.8197 24.5964 21.7446 25.0187L21.7341 25.078C21.7341 25.078 21.7341 25.078 21.7341 25.078C21.6564 25.513 21.2494 25.8222 20.8094 25.7816L10.761 21.6121ZM4.82133 19.5738C4.80519 19.6288 4.79654 19.6871 4.79654 19.7473C4.79654 19.7919 4.80126 19.8353 4.81024 19.8771C4.58855 19.8426 4.37507 19.8041 4.20718 19.7628C4.17213 19.7542 4.13994 19.7457 4.11072 19.7373C4.11895 19.7345 4.12745 19.7318 4.13622 19.729C4.29688 19.6783 4.51365 19.6312 4.72946 19.5907C4.76031 19.5849 4.79099 19.5792 4.82133 19.5738ZM5.93204 20.3628C5.93216 20.3628 5.93229 20.3628 5.93243 20.3628H7.11101V29.2806H2.14282V20.3628H5.41174H5.93183H5.93204ZM14.7042 26.444L20.6943 27.0068L14.3133 25.7894L14.1493 25.7738C14.1493 25.7739 14.1492 25.774 14.1492 25.774C14.1173 26.1125 14.366 26.4122 14.7042 26.444C14.7042 26.444 14.7042 26.444 14.7042 26.444ZM20.8092 25.7816L14.8196 25.2188L20.8092 25.7816Z" fill="url(#paint0_linear_230_1916)" stroke="url(#paint1_linear_230_1916)" stroke-width="0.32948"/>
<path d="M20.047 11.4189C18.9976 11.384 18.1406 10.8417 18.1406 10.2821C18.1406 9.98478 18.4032 9.54769 18.7354 9.54769C19.1024 9.54769 19.3998 10.0636 20.047 10.1773V8.76044C19.2425 8.45462 18.2983 8.07841 18.2983 6.9593C18.2983 5.84863 19.12 5.31547 20.047 5.1842V4.93926C20.047 4.8168 20.1871 4.70312 20.3796 4.70312C20.5457 4.70312 20.7118 4.8168 20.7118 4.93926V5.15781C21.2541 5.1754 22.2771 5.31547 22.2771 5.91866C22.2771 6.1548 22.1195 6.63553 21.7348 6.63553C21.4462 6.63553 21.2801 6.3561 20.7118 6.31211V7.58889C21.5075 7.88626 22.4341 8.29696 22.4341 9.47766C22.4341 10.5619 21.7348 11.2179 20.7118 11.384V11.6374C20.7118 11.7599 20.5453 11.8735 20.3792 11.8735C20.1871 11.8735 20.047 11.7599 20.047 11.6374V11.4189ZM20.1343 7.37879V6.33851C19.7408 6.41699 19.5747 6.61829 19.5747 6.82803C19.5747 7.08177 19.8021 7.23908 20.1343 7.37879ZM20.6241 8.99658V10.1685C20.9215 10.0984 21.1577 9.93234 21.1577 9.61772C21.1577 9.32879 20.9388 9.14544 20.6241 8.99658Z" fill="url(#paint2_linear_230_1916)"/>
<path d="M17.8069 1.05004L17.8069 1.05005L18.0698 0.968503C18.0751 0.966738 18.082 0.9646 18.0896 0.962606C18.8042 0.756357 19.5466 0.651666 20.2963 0.651666C24.6755 0.651666 28.2378 4.21403 28.2378 8.59319C28.2378 12.9723 24.6755 16.5347 20.2963 16.5347C15.9172 16.5347 12.3548 12.9723 12.3548 8.59319C12.3548 6.72982 13.0131 4.91828 14.2092 3.49247L14.2093 3.4924C14.5077 3.13717 15.0377 3.09011 15.3934 3.3888M17.8069 1.05004L18.2759 2.49261M17.8069 1.05004L17.8049 1.05069C17.7916 1.055 17.7755 1.06032 17.7585 1.0669L17.2267 1.26758L17.2261 1.26784C17.2118 1.27331 17.1969 1.27941 17.1819 1.28619L17.1826 1.2859L17.2494 1.43649L17.1812 1.28652L16.9707 1.37986L16.9706 1.37993C16.5465 1.56854 16.3552 2.06527 16.5439 2.48953C16.7325 2.91353 17.2295 3.10494 17.6534 2.91623L17.5865 2.76575L17.6535 2.9162L17.843 2.83195M17.8069 1.05004L17.843 2.83195M15.3934 3.3888L15.2874 3.51495L15.3933 3.38873C15.3933 3.38876 15.3933 3.38878 15.3934 3.3888ZM15.3934 3.3888C15.7491 3.68726 15.7955 4.21728 15.4974 4.57276L15.4974 4.57277C14.5549 5.69629 14.036 7.12418 14.036 8.59319C14.036 12.045 16.8445 14.8535 20.2963 14.8535C23.7478 14.8535 26.5563 12.045 26.5563 8.59319C26.5563 5.14137 23.7478 2.33323 20.2963 2.33323C19.7057 2.33323 19.1227 2.41472 18.5618 2.57618M18.5618 2.57618L18.5635 2.57566L18.5145 2.41836L18.5601 2.57666C18.5607 2.5765 18.5613 2.57634 18.5618 2.57618ZM18.5618 2.57618L18.3295 2.64847M18.3295 2.64847L18.3341 2.64675L18.2759 2.49261M18.3295 2.64847L17.843 2.83195M18.3295 2.64847L18.3249 2.64991L18.2759 2.49261M18.2759 2.49261L17.843 2.83195M17.843 2.83195L17.8474 2.83001L17.7804 2.67948L17.8386 2.83363L17.843 2.83195Z" fill="url(#paint3_linear_230_1916)" stroke="url(#paint4_linear_230_1916)" stroke-width="0.32948"/>
</g>
<defs>
<linearGradient id="paint0_linear_230_1916" x1="31.1923" y1="31.1161" x2="20.2169" y2="9.40882" gradientUnits="userSpaceOnUse">
<stop stop-color="#29292F"/>
<stop offset="1" stop-color="#289B5D"/>
</linearGradient>
<linearGradient id="paint1_linear_230_1916" x1="31.1923" y1="31.1161" x2="20.2169" y2="9.40882" gradientUnits="userSpaceOnUse">
<stop stop-color="#29292F"/>
<stop offset="1" stop-color="#289B5D"/>
</linearGradient>
<linearGradient id="paint2_linear_230_1916" x1="22.4341" y1="11.8735" x2="16.1699" y2="9.00184" gradientUnits="userSpaceOnUse">
<stop stop-color="#29292F"/>
<stop offset="1" stop-color="#289B5D"/>
</linearGradient>
<linearGradient id="paint3_linear_230_1916" x1="28.0731" y1="16.37" x2="10.76" y2="3.11461" gradientUnits="userSpaceOnUse">
<stop stop-color="#29292F"/>
<stop offset="1" stop-color="#289B5D"/>
</linearGradient>
<linearGradient id="paint4_linear_230_1916" x1="28.0731" y1="16.37" x2="10.76" y2="3.11461" gradientUnits="userSpaceOnUse">
<stop stop-color="#29292F"/>
<stop offset="1" stop-color="#289B5D"/>
</linearGradient>
<clipPath id="clip0_230_1916">
<rect width="31.6301" height="31.6301" fill="white"/>
</clipPath>
</defs>
</svg>
