<svg width="52" height="50" viewBox="0 0 52 50" fill="none" xmlns="http://www.w3.org/2000/svg">
<path d="M51.1123 25C51.1123 36.6345 43.1212 46.409 32.2971 49.2002C30.2716 49.7209 28.149 50 25.9588 50C25.5186 50 25.0811 49.9893 24.6436 49.9678C11.3592 49.2888 0.799805 38.3709 0.799805 25C0.799805 11.1943 12.0614 0 25.9561 0C39.8507 0 51.1123 11.1943 51.1123 25Z" fill="#395398"/>
<path d="M29.6103 16.211V20.7993H36.7744L35.8413 27.9881H29.6103V43.2196C27.6334 43.7276 25.5617 44 23.424 44C22.9944 44 22.5674 43.9895 22.1404 43.9686V27.9881H15.8936V20.7993H22.1404V15.5013C22.1404 9.34956 25.9228 6 31.4448 6C34.0912 6 36.3632 6.19642 37.0248 6.28284V12.7122L33.195 12.7148C30.1928 12.7122 29.6103 14.1316 29.6103 16.211Z" fill="white"/>
</svg>
