<svg width="30" height="30" viewBox="0 0 30 30" fill="none" xmlns="http://www.w3.org/2000/svg">
<path fill-rule="evenodd" clip-rule="evenodd" d="M26.9836 13.6512L25.3036 10.0822L30 7.96852L29.6529 12.0201L26.9836 13.6512ZM25.8208 15.3983L17.3375 14.5341L5.96969 28.1779C3.15464 31.8217 -1.87843 26.9546 0.724886 23.6661L10.7633 12.7721L5.28242 6.34863L3.62324 6.25511L1.45381 2.10249L3.73779 0L7.1811 2.93676L7.0492 4.61651L12.471 10.9015L14.8036 8.36882L17.6048 0.718289L26.4387 0.0411522L27.7126 2.47286L21.9471 5.64157L25.8208 15.3983ZM4.99432 23.943C3.25878 22.3792 0.978275 25.1364 2.81795 26.8012C4.49448 28.3201 6.70903 25.4993 4.99085 23.943H4.99432ZM20.4858 16.7788C20.4858 16.7788 24.5921 21.328 26.9767 23.7784C29.9202 26.8087 23.995 32.1584 21.2563 29.072C19.1737 26.7413 15.0084 20.8416 15.0084 20.8416L18.0803 16.8723L20.4858 16.7788Z" fill="url(#paint0_linear_249_1952)"/>
<defs>
<linearGradient id="paint0_linear_249_1952" x1="15" y1="0" x2="15" y2="30" gradientUnits="userSpaceOnUse">
<stop stop-color="white"/>
<stop offset="1" stop-color="#999999"/>
</linearGradient>
</defs>
</svg>
