<svg width="30" height="30" viewBox="0 0 30 30" fill="none" xmlns="http://www.w3.org/2000/svg">
<path fill-rule="evenodd" clip-rule="evenodd" d="M15.8523 29.8549L17.8823 25.7182L19.8498 26.1659L20.8782 24.106L16.523 21.6152L17.6289 20.2688L21.6205 22.625L23.7399 18.3738L30 29.754L15.8523 29.8549ZM12.8504 2.40926C13.3095 -1.36393 18.72 -0.505622 17.7452 3.59406C16.7615 7.74424 12.4063 6.03772 12.8504 2.40926ZM16.0878 18.5118C16.2011 20.1274 15.2382 20.427 14.5973 20.4539L14.2694 29.6261C14.2694 29.6261 12.0903 30.9724 11.98 28.5557C11.8607 25.9067 11.6103 20.9757 11.6103 20.9757C11.6103 20.9757 6.85867 18.6195 5.35029 17.5559C4.23242 16.7683 3.88067 15.8056 4.1579 14.5266L1.58233 13.0489L1.60022 12.9883C0.926519 12.6517 0.208103 11.4165 0.679098 10.3629C0.536011 10.6591 3.07282 4.85965 3.07282 4.85965C3.07282 4.85965 6.52778 5.00775 9.05565 5.08853C13.0919 5.22317 15.2948 8.68669 15.2948 8.68669C15.2948 8.68669 15.9924 17.1486 16.0878 18.5118ZM4.56331 8.17508L2.77473 11.4838L4.86141 12.7191C5.66926 11.0832 6.36978 9.61569 7.07628 8.15152L4.56331 8.17508ZM12.4033 10.1711L9.79493 15.6205L13.6702 17.9026L12.4033 10.1711ZM6.97194 20.4169L1.48396 29.9526C1.48396 29.9526 -0.692152 29.4106 0.225989 27.2194C1.38857 24.4526 3.75547 18.5152 3.75547 18.5152L6.97194 20.4169Z" fill="url(#paint0_linear_249_1942)"/>
<defs>
<linearGradient id="paint0_linear_249_1942" x1="15" y1="0" x2="15" y2="30" gradientUnits="userSpaceOnUse">
<stop stop-color="white"/>
<stop offset="1" stop-color="#999999"/>
</linearGradient>
</defs>
</svg>
