<svg width="10" height="12" viewBox="0 0 10 12" fill="none" xmlns="http://www.w3.org/2000/svg">
<path d="M8.375 4.5H8V3C8 1.3455 6.6545 0 5 0C3.3455 0 2 1.3455 2 3V4.5H1.625C1.005 4.5 0.5 5.0045 0.5 5.625V10.875C0.5 11.4955 1.005 12 1.625 12H8.375C8.995 12 9.5 11.4955 9.5 10.875V5.625C9.5 5.0045 8.995 4.5 8.375 4.5ZM3 3C3 1.897 3.897 1 5 1C6.103 1 7 1.897 7 3V4.5H3V3ZM5.5 8.361V9.5C5.5 9.776 5.2765 10 5 10C4.7235 10 4.5 9.776 4.5 9.5V8.361C4.2025 8.1875 4 7.8685 4 7.5C4 6.9485 4.4485 6.5 5 6.5C5.5515 6.5 6 6.9485 6 7.5C6 7.8685 5.7975 8.1875 5.5 8.361Z" fill="#474344"/>
</svg>
