<svg width="48" height="48" viewBox="0 0 48 48" fill="none" xmlns="http://www.w3.org/2000/svg">
<path d="M24.358 0C6.95839 0 6.37964 21.0711 0 29.2655C0 32.777 9.27938 43.3118 18.5591 45.6537C20.3858 47.088 22.3282 48 24.358 48C26.1982 48 27.9662 47.2515 29.642 46.0442C38.8961 43.6697 47.5585 33.3585 47.5585 31.6067C47.5577 24.5819 43.5056 0 24.358 0ZM27.8386 11.1227L28.9977 16.3899C31.4292 16.3899 33.2729 14.6895 34.1761 13.6565C35.348 15.8601 35.9523 18.6274 35.9523 21.6571V25.8234L36.3767 26.3188C36.3767 26.3188 37.1131 27.1644 37.1131 28.6806C37.1131 30.6412 35.4835 31.9593 35.4835 31.9593L35.0642 32.281L34.8903 32.7833C33.749 36.0915 31.8326 39.1217 29.7938 41.25C27.7549 43.3783 25.5721 44.4771 24.358 44.4771C23.1438 44.4771 20.9628 43.3783 18.9239 41.25C16.8849 39.1217 14.9681 36.0918 13.8273 32.7833L13.6534 32.2792L13.2341 31.9576C13.2341 31.9576 11.6045 30.6395 11.6045 28.6789C11.6045 27.1627 12.3409 26.3188 12.3409 26.3188L12.7653 25.8217V21.6571C12.7653 21.4559 12.7789 21.2608 12.7841 21.0619C12.8624 21.0355 23.2167 17.5366 27.8386 11.1227Z" fill="url(#paint0_linear_312_606)"/>
<defs>
<linearGradient id="paint0_linear_312_606" x1="47.5585" y1="48" x2="-5.74091" y2="7.56794" gradientUnits="userSpaceOnUse">
<stop stop-color="#29292F"/>
<stop offset="1" stop-color="#289B5D"/>
</linearGradient>
</defs>
</svg>
