<svg width="27" height="35" viewBox="0 0 27 35" fill="none" xmlns="http://www.w3.org/2000/svg">
<path d="M20.5457 18.5345C18.6707 14.9575 6.23119 6.98804 6.23119 6.98804C6.23119 6.98804 5.70466 21.742 7.57965 25.319C9.45464 28.896 13.6604 29.132 17.2406 27.2587C20.8208 25.3854 22.4207 22.1122 20.5457 18.5345ZM14.5278 22.5033C13.3967 23.095 12.0685 23.0207 11.4762 21.8907C10.884 20.7606 11.0501 16.1005 11.0501 16.1005C11.0501 16.1005 14.9792 18.6175 15.5715 19.7475C16.1637 20.8775 15.6589 21.9116 14.5278 22.5033Z" fill="#4F4F4F"/>
<path d="M16.7521 32.9468C16.4096 32.9792 16.0624 32.9931 15.7091 32.9893C14.9509 32.9805 14.3444 32.3588 14.3533 31.602C14.3622 30.8446 14.9853 30.2384 15.742 30.2474C20.0005 30.2984 21.6301 26.6475 21.6459 26.6104C21.9467 25.9154 22.7542 25.5952 23.4498 25.8955C24.1454 26.1959 24.4658 27.0027 24.1651 27.6977C24.1042 27.8387 23.5318 29.1112 22.236 30.3858C20.7231 31.8753 18.8428 32.7495 16.7521 32.9468Z" fill="#4F4F4F"/>
</svg>
