<svg width="27" height="95" viewBox="0 0 27 95" fill="none" xmlns="http://www.w3.org/2000/svg">
<path d="M1.7835 92.1117C0.684089 91.992 -0.107079 91.0063 0.016372 89.91L2.02816 72.0446C2.15161 70.9483 3.14294 70.1566 4.24235 70.2762C5.34176 70.3959 6.13292 71.3816 6.00947 72.4779L4.22122 88.3582L20.1465 90.0914C21.2459 90.211 22.037 91.1967 21.9136 92.293C21.7901 93.3893 20.7988 94.1811 19.6994 94.0614L1.7835 92.1117ZM0.757484 88.5698C1.8471 87.6996 2.88858 86.8222 3.88355 85.9387L6.54319 88.9171C5.49472 89.8482 4.39963 90.7705 3.25657 91.6834L0.757484 88.5698ZM9.63573 80.2041C11.5053 78.0969 13.1432 75.965 14.5697 73.8188L17.9074 76.0173C16.375 78.323 14.6227 80.6022 12.6331 82.8447L9.63573 80.2041ZM18.4909 66.7973C19.6374 64.2938 20.5333 61.7803 21.2072 59.2713L25.0771 60.2929C24.3462 63.014 23.3751 65.7376 22.1346 68.4465L18.4909 66.7973ZM22.6293 51.3951C22.8888 48.6984 22.9223 46.02 22.7639 43.3786L26.7631 43.1278C26.9331 45.9633 26.8978 48.8493 26.6173 51.7642L22.6293 51.3951ZM21.7089 35.3972C21.1668 32.7238 20.4517 30.1145 19.6037 27.5922L23.4028 26.3126C24.2993 28.9793 25.0587 31.7478 25.6359 34.5942L21.7089 35.3972ZM16.5881 20.0644C15.4053 17.5257 14.1155 15.1251 12.7738 12.8934L16.212 10.8326C17.6221 13.1782 18.9782 15.7019 20.2226 18.3728L16.5881 20.0644ZM8.22877 6.17918C7.37043 5.05292 6.51764 4.007 5.68397 3.04845L8.71458 0.427015C9.60662 1.45269 10.5134 2.56524 11.4217 3.75702L8.22877 6.17918Z" fill="#6D6D6D"/>
</svg>
