<svg width="51" height="50" viewBox="0 0 51 50" fill="none" xmlns="http://www.w3.org/2000/svg">
<path d="M25.1562 50C39.0497 50 50.3125 38.8071 50.3125 25C50.3125 11.1929 39.0497 0 25.1562 0C11.2628 0 0 11.1929 0 25C0 38.8071 11.2628 50 25.1562 50Z" fill="url(#paint0_linear_234_6647)"/>
<path d="M17.0273 26.8265L20.0126 35.0376C20.0126 35.0376 20.3852 35.8042 20.784 35.8042C21.1828 35.8042 27.1271 29.6598 27.1271 29.6598L33.7348 16.9746L17.1354 24.7079L17.0273 26.8265Z" fill="#C8DAEA"/>
<path d="M20.9862 28.9336L20.4123 34.9854C20.4123 34.9854 20.1737 36.841 22.0372 34.9854C23.9043 33.1299 25.6895 31.7003 25.6895 31.7003L20.9862 28.9336Z" fill="#A9C6D8"/>
<path d="M17.0838 27.1182L10.9457 25.1293C10.9457 25.1293 10.2115 24.833 10.45 24.1627C10.4985 24.0256 10.5954 23.9071 10.8898 23.7034C12.2501 22.7627 36.0684 14.2516 36.0684 14.2516C36.0684 14.2516 36.7392 14.0256 37.138 14.1775C37.3206 14.2442 37.4361 14.3219 37.533 14.6071C37.5703 14.7108 37.5889 14.9293 37.5852 15.1442C37.5815 15.2997 37.5629 15.4479 37.5479 15.6738C37.4026 17.9997 33.0608 35.359 33.0608 35.359C33.0608 35.359 32.7999 36.3738 31.872 36.4108C31.5328 36.4219 31.1191 36.3553 30.6272 35.933C28.801 34.3701 22.4877 30.1553 21.0939 29.2293C21.0156 29.1775 20.9933 29.1108 20.9784 29.0442C20.9597 28.9479 21.0641 28.8256 21.0641 28.8256C21.0641 28.8256 32.0546 19.1182 32.3453 18.0997C32.3676 18.0219 32.2819 17.9812 32.1664 18.0145C31.4359 18.2812 18.7833 26.2219 17.3857 27.0997C17.3111 27.1516 17.0838 27.1182 17.0838 27.1182Z" fill="white"/>
<defs>
<linearGradient id="paint0_linear_234_6647" x1="25.1562" y1="50" x2="25.1562" y2="0" gradientUnits="userSpaceOnUse">
<stop stop-color="#1D93D2"/>
<stop offset="1" stop-color="#38B0E3"/>
</linearGradient>
</defs>
</svg>
