<svg width="51" height="49" viewBox="0 0 51 49" fill="none" xmlns="http://www.w3.org/2000/svg">
<g clip-path="url(#clip0_249_2061)">
<path d="M25.1562 48.8877C39.0497 48.8877 50.3125 38.0066 50.3125 24.584C50.3125 11.1614 39.0497 0.280273 25.1562 0.280273C11.2628 0.280273 0 11.1614 0 24.584C0 38.0066 11.2628 48.8877 25.1562 48.8877Z" fill="url(#paint0_linear_249_2061)"/>
<path d="M17.0273 26.3596L20.0126 34.342C20.0126 34.342 20.3852 35.0873 20.784 35.0873C21.1828 35.0873 27.1271 29.114 27.1271 29.114L33.7348 16.7821L17.1354 24.3001L17.0273 26.3596Z" fill="#C8DAEA"/>
<path d="M20.9862 28.4081L20.4123 34.2914C20.4123 34.2914 20.1737 36.0952 22.0372 34.2914C23.9043 32.4875 25.6895 31.0977 25.6895 31.0977L20.9862 28.4081Z" fill="#A9C6D8"/>
<path d="M17.0838 26.6432L10.9457 24.7097C10.9457 24.7097 10.2115 24.4217 10.45 23.77C10.4985 23.6368 10.5954 23.5216 10.8898 23.3235C12.2501 22.409 36.0684 14.1349 36.0684 14.1349C36.0684 14.1349 36.7392 13.9153 37.138 14.0629C37.3206 14.1277 37.4361 14.2033 37.533 14.4806C37.5703 14.5814 37.5889 14.7938 37.5852 15.0026C37.5815 15.1539 37.5629 15.2979 37.5479 15.5175C37.4026 17.7787 33.0608 34.6545 33.0608 34.6545C33.0608 34.6545 32.7999 35.641 31.872 35.677C31.5328 35.6878 31.1191 35.623 30.6272 35.2125C28.801 33.6931 22.4877 29.5957 21.0939 28.6955C21.0156 28.6451 20.9933 28.5803 20.9784 28.5155C20.9597 28.4219 21.0641 28.3031 21.0641 28.3031C21.0641 28.3031 32.0546 18.866 32.3453 17.8759C32.3676 17.8003 32.2819 17.7607 32.1664 17.7931C31.4359 18.0523 18.7833 25.7719 17.3857 26.6252C17.3111 26.6756 17.0838 26.6432 17.0838 26.6432Z" fill="white"/>
</g>
<defs>
<linearGradient id="paint0_linear_249_2061" x1="25.1562" y1="48.8877" x2="25.1562" y2="0.280273" gradientUnits="userSpaceOnUse">
<stop stop-color="#1D93D2"/>
<stop offset="1" stop-color="#38B0E3"/>
</linearGradient>
<clipPath id="clip0_249_2061">
<rect width="50.3125" height="48.6075" fill="white" transform="translate(0 0.280273)"/>
</clipPath>
</defs>
</svg>
