<svg width="33" height="33" viewBox="0 0 33 33" fill="none" xmlns="http://www.w3.org/2000/svg">
<path d="M16.1856 32.17C25.1246 32.17 32.3711 24.9685 32.3711 16.085C32.3711 7.20151 25.1246 0 16.1856 0C7.24652 0 0 7.20151 0 16.085C0 24.9685 7.24652 32.17 16.1856 32.17Z" fill="url(#paint0_linear_367_1909)"/>
<path d="M10.9521 17.2606L12.8728 22.5436C12.8728 22.5436 13.1126 23.0369 13.3692 23.0369C13.6258 23.0369 17.4503 19.0835 17.4503 19.0835L21.7018 10.9219L11.0217 15.8975L10.9521 17.2606Z" fill="#C8DAEA"/>
<path d="M13.5094 18.6191L13.1402 22.5129C13.1402 22.5129 12.9867 23.7068 14.1856 22.5129C15.387 21.319 16.5355 20.3992 16.5355 20.3992L13.5094 18.6191Z" fill="#A9C6D8"/>
<path d="M10.9942 17.4477L7.0449 16.1681C7.0449 16.1681 6.57252 15.9775 6.72598 15.5461C6.75715 15.458 6.8195 15.3817 7.00893 15.2507C7.88415 14.6454 23.2089 9.16932 23.2089 9.16932C23.2089 9.16932 23.6405 9.02396 23.897 9.12166C24.0145 9.16456 24.0889 9.2146 24.1512 9.39809C24.1752 9.46481 24.1872 9.6054 24.1848 9.74362C24.1824 9.8437 24.1704 9.93902 24.1608 10.0844C24.0673 11.5809 21.2738 22.7498 21.2738 22.7498C21.2738 22.7498 21.1059 23.4028 20.5089 23.4266C20.2907 23.4338 20.0245 23.3909 19.708 23.1192C18.533 22.1136 14.4711 19.4018 13.5743 18.806C13.5239 18.7727 13.5095 18.7298 13.4999 18.6869C13.4879 18.6249 13.5551 18.5463 13.5551 18.5463C13.5551 18.5463 20.6264 12.3005 20.8134 11.6452C20.8278 11.5952 20.7726 11.569 20.6983 11.5904C20.2283 11.762 12.0876 16.8711 11.1884 17.4358C11.1404 17.4692 10.9942 17.4477 10.9942 17.4477Z" fill="white"/>
<defs>
<linearGradient id="paint0_linear_367_1909" x1="16.1856" y1="32.17" x2="16.1856" y2="0" gradientUnits="userSpaceOnUse">
<stop stop-color="#1D93D2"/>
<stop offset="1" stop-color="#38B0E3"/>
</linearGradient>
</defs>
</svg>
