<svg width="187" height="144" viewBox="0 0 187 144" fill="none" xmlns="http://www.w3.org/2000/svg">
<path d="M185.453 135.041C186.436 134.537 186.824 133.332 186.32 132.349L178.103 116.334C177.598 115.351 176.393 114.963 175.41 115.468C174.428 115.972 174.04 117.177 174.544 118.16L181.848 132.395L167.613 139.7C166.63 140.204 166.242 141.409 166.746 142.392C167.25 143.375 168.456 143.763 169.439 143.258L185.453 135.041ZM185.153 131.358C183.843 130.936 182.541 130.511 181.246 130.081L179.986 133.877C181.292 134.311 182.606 134.74 183.928 135.166L185.153 131.358ZM173.541 127.444C170.953 126.532 168.397 125.604 165.873 124.66L164.473 128.407C167.02 129.359 169.599 130.296 172.211 131.217L173.541 127.444ZM158.244 121.725C155.69 120.714 153.171 119.688 150.685 118.648L149.141 122.338C151.65 123.388 154.194 124.424 156.772 125.444L158.244 121.725ZM143.197 115.426C140.688 114.318 138.216 113.195 135.781 112.06L134.091 115.685C136.551 116.832 139.047 117.966 141.58 119.085L143.197 115.426ZM128.431 108.541C125.961 107.328 123.531 106.101 121.139 104.863L119.3 108.415C121.717 109.666 124.172 110.905 126.667 112.131L128.431 108.541ZM113.931 101.034C111.515 99.7182 109.142 98.3909 106.811 97.0542L104.821 100.524C107.178 101.875 109.576 103.217 112.017 104.547L113.931 101.034ZM99.7817 92.9208C97.4251 91.4996 95.1141 90.0697 92.8485 88.6328L90.7062 92.0108C92.9971 93.4637 95.3336 94.9094 97.7161 96.3461L99.7817 92.9208ZM86.0156 84.1888C83.7234 82.6601 81.4813 81.1257 79.2886 79.5877L76.9916 82.8624C79.2098 84.4184 81.4779 85.9705 83.7962 87.5166L86.0156 84.1888ZM72.6738 74.8283C70.4536 73.1897 68.2887 71.5494 66.1786 69.9099L63.7244 73.0686C65.8605 74.7282 68.0517 76.3884 70.2986 78.0467L72.6738 74.8283ZM59.8115 64.8324C57.6733 63.082 55.5973 61.3355 53.5828 59.596L50.9686 62.6235C53.0095 64.3859 55.1124 66.1549 57.2777 67.9275L59.8115 64.8324ZM47.505 54.2024C45.4505 52.3281 43.4682 50.4659 41.5572 48.6197L38.7779 51.4965C40.7164 53.3692 42.7265 55.2576 44.8092 57.1575L47.505 54.2024ZM35.7828 42.8723C33.8402 40.8791 31.9833 38.9105 30.2109 36.9717L27.2586 39.6706C29.0599 41.641 30.9461 43.6406 32.9182 45.6641L35.7828 42.8723ZM24.8203 30.8687C22.9982 28.7312 21.2853 26.6404 19.6798 24.604L16.5387 27.0806C18.1764 29.1577 19.9216 31.288 21.7761 33.4636L24.8203 30.8687ZM14.7846 18.1141C13.1086 15.7845 11.5908 13.5504 10.2277 11.4261L6.86114 13.5863C8.26447 15.7733 9.82239 18.0661 11.5376 20.4502L14.7846 18.1141ZM6.11015 4.51194C5.43586 3.27567 4.83 2.09795 4.29116 0.982967L0.689682 2.72347C1.25926 3.90205 1.8954 5.13813 2.59853 6.42727L6.11015 4.51194Z" fill="#868686"/>
</svg>
