<svg width="51" height="50" viewBox="0 0 51 50" fill="none" xmlns="http://www.w3.org/2000/svg">
<path d="M25.7812 50C39.6747 50 50.9375 38.8071 50.9375 25C50.9375 11.1929 39.6747 0 25.7812 0C11.8878 0 0.625 11.1929 0.625 25C0.625 38.8071 11.8878 50 25.7812 50Z" fill="url(#paint0_linear_234_6639)"/>
<path fill-rule="evenodd" clip-rule="evenodd" d="M37.8823 13.2819C34.871 10.2856 30.8609 8.63379 26.5937 8.63379C17.7983 8.63379 10.639 15.7449 10.6353 24.4856C10.6353 27.2782 11.3695 30.0079 12.7671 32.4116L10.5049 40.6264L18.9648 38.4227C21.2941 39.6856 23.9215 40.3523 26.59 40.3523H26.5974C35.3928 40.3523 42.5521 33.2412 42.5558 24.4968C42.5521 20.2634 40.8936 16.2782 37.8823 13.2819ZM26.5937 37.6745H26.59C24.2085 37.6745 21.8755 37.0375 19.8406 35.8375L19.3562 35.5523L14.3361 36.8597L15.6778 31.9968L15.361 31.4968C14.0342 29.4005 13.3336 26.9745 13.3336 24.4856C13.3336 17.2227 19.2816 11.3116 26.5974 11.3116C30.1417 11.3116 33.4697 12.6856 35.9742 15.1745C38.4786 17.6671 39.8576 20.9745 39.8538 24.4968C39.8538 31.7634 33.9058 37.6745 26.5937 37.6745ZM33.8685 27.8042C33.4697 27.6042 31.5094 26.6486 31.1442 26.5153C30.779 26.3819 30.5144 26.3153 30.246 26.7153C29.9814 27.1116 29.2174 28.0042 28.9826 28.2671C28.7515 28.5301 28.5168 28.5634 28.118 28.3671C27.7192 28.1671 26.4334 27.7523 24.9129 26.4005C23.7278 25.3486 22.9265 24.0523 22.6954 23.656C22.4644 23.2597 22.6693 23.0449 22.8706 22.8486C23.0495 22.6708 23.2694 22.3856 23.4669 22.156C23.6644 21.9264 23.7315 21.7597 23.8656 21.4968C23.9998 21.2338 23.9327 21.0005 23.8321 20.8042C23.7315 20.6042 22.9339 18.656 22.6022 17.8634C22.278 17.0893 21.95 17.1968 21.7041 17.1819C21.473 17.1708 21.2047 17.1671 20.9401 17.1671C20.6755 17.1671 20.2431 17.2671 19.8779 17.6634C19.5127 18.0597 18.4841 19.019 18.4841 20.9671C18.4841 22.9153 19.9115 24.8005 20.1127 25.0634C20.3102 25.3264 22.9228 29.3301 26.9254 31.0449C27.8757 31.4523 28.6211 31.6968 29.1988 31.8782C30.1528 32.1782 31.0249 32.1375 31.7107 32.0338C32.4784 31.919 34.0698 31.0745 34.4015 30.1486C34.7331 29.2227 34.7331 28.4301 34.6325 28.2634C34.5356 28.1042 34.2673 28.0042 33.8685 27.8042Z" fill="white"/>
<defs>
<linearGradient id="paint0_linear_234_6639" x1="25.7812" y1="46.3675" x2="25.7812" y2="-3.63248" gradientUnits="userSpaceOnUse">
<stop stop-color="#78CD51"/>
<stop offset="1" stop-color="#A0FC84"/>
</linearGradient>
</defs>
</svg>
