<svg width="33" height="33" viewBox="0 0 33 33" fill="none" xmlns="http://www.w3.org/2000/svg">
<path d="M32.418 16.9279C32.418 24.4072 27.2808 30.6908 20.3225 32.4852C19.0204 32.8199 17.6558 32.9993 16.2478 32.9993C15.9648 32.9993 15.6836 32.9924 15.4023 32.9786C6.86242 32.5421 0.0742188 25.5235 0.0742188 16.9279C0.0742188 8.05279 7.3138 0.856445 16.2461 0.856445C25.1784 0.856445 32.418 8.05279 32.418 16.9279Z" fill="white"/>
<g clip-path="url(#clip0_0_1)">
<path d="M25.9453 18.9894C25.9453 21.4402 25.1084 23.4279 22.665 23.4279H10.0815C7.63642 23.4279 6.53906 21.4402 6.53906 18.9894V14.2949C6.53906 11.8424 7.53223 9.85645 9.97734 9.85645H22.7675C25.2143 9.85645 25.9453 11.8424 25.9453 14.2949V18.9894Z" fill="url(#paint0_radial_0_1)"/>
<path d="M14.2969 13.9907L19.582 16.7566L14.2969 19.5207V13.9907Z" fill="white"/>
<path d="M14.2969 14.0329L18.8931 17.1154L19.5821 16.7566L14.7053 14.2047L14.2969 14.0261V14.0329Z" fill="#E8E0E0"/>
</g>
<defs>
<radialGradient id="paint0_radial_0_1" cx="0" cy="0" r="1" gradientUnits="userSpaceOnUse" gradientTransform="translate(15.9262 25.9548) scale(18.669 18.7128)">
<stop offset="0.1684" stop-color="#C2181E"/>
<stop offset="0.7653" stop-color="#DE2925"/>
</radialGradient>
<clipPath id="clip0_0_1">
<rect width="19.4063" height="13.5714" fill="white" transform="translate(6.53906 9.85693)"/>
</clipPath>
</defs>
</svg>
