<svg width="30" height="30" viewBox="0 0 30 30" fill="none" xmlns="http://www.w3.org/2000/svg">
<path fill-rule="evenodd" clip-rule="evenodd" d="M29.9137 17.0875C28.6077 15.5108 24.674 14.6836 22.78 16.4048C20.4784 14.299 17.1878 13.6115 14.762 15.2537C13.2007 13.0407 9.66867 12.6078 7.36076 14.1914C5.56639 12.1652 2.40749 11.5569 0 12.7938C0.710909 6.94811 6.19811 1.6576 15.0938 2.31712C15.2222 1.1902 15.3622 0 15.3622 0L18.0967 0.733559C18.0967 0.733559 18.0034 1.63216 17.9008 2.70723C26.7506 4.51552 30.6438 11.0817 29.9137 17.0875ZM9.79765 25.1084C9.64737 27.2764 12.3524 27.829 12.5732 25.507C12.6515 24.6844 13.579 16.1064 13.579 16.1064L16.3665 16.5066C16.3665 16.5066 15.544 23.9315 15.349 25.9052C14.7353 32.1119 6.15342 30.9002 7.02241 24.7101C7.23958 23.1634 9.91824 23.3813 9.79765 25.1084Z" fill="url(#paint0_linear_249_1937)"/>
<defs>
<linearGradient id="paint0_linear_249_1937" x1="15" y1="0" x2="15" y2="30" gradientUnits="userSpaceOnUse">
<stop stop-color="white"/>
<stop offset="1" stop-color="#999999"/>
</linearGradient>
</defs>
</svg>
